<svg width="120" height="120" viewBox="0 0 120 120" fill="none" xmlns="http://www.w3.org/2000/svg">
<circle cx="60" cy="60" r="60" fill="white" fill-opacity="0.3"/>
<g clip-path="url(#clip0)">
<path d="M91.1284 57.8956L72.0831 38.8503C70.9211 37.6883 69.0365 37.6883 67.8745 38.8503C66.7123 40.0125 66.7123 41.8966 67.8745 43.0588L81.8398 57.024H30.9758C29.3325 57.024 28 58.3565 28 59.9999C28 61.643 29.3325 62.9757 30.9758 62.9757H81.8398L67.875 76.941C66.7128 78.1032 66.7128 79.9873 67.875 81.1495C68.4559 81.7302 69.2177 82.0211 69.9793 82.0211C70.7409 82.0211 71.5024 81.7302 72.0836 81.1495L91.1284 62.1042C92.2907 60.9419 92.2907 59.0579 91.1284 57.8956Z" fill="white"/>
</g>
<defs>
<clipPath id="clip0">
<rect width="64" height="64" fill="white" transform="translate(28 28)"/>
</clipPath>
</defs>
</svg>
