<svg width="1920" height="3240" viewBox="0 0 1920 3240" fill="none" xmlns="http://www.w3.org/2000/svg">
<g clip-path="url(#clip0_306:574)">
<rect width="1920" height="3240" fill="#EDF1F4"/>
<g filter="url(#filter0_d_306:574)">
<path fill-rule="evenodd" clip-rule="evenodd" d="M1701.09 51.7889C1784.63 31.972 1878.69 64.8583 1942.16 122.595C2003.1 178.039 2010.31 267.531 2026.88 348.17C2041.54 419.529 2054.01 491.745 2032.29 561.288C2010.39 631.411 1970.38 699.89 1905.95 735.358C1844.61 769.131 1771 739.023 1701.09 743.615C1623.93 748.683 1537.25 810.32 1475.66 763.62C1413.82 716.724 1457.46 614.404 1433.47 540.665C1409.49 466.943 1313.85 409.719 1336.42 335.554C1358.9 261.674 1470.01 267.597 1531.01 220.131C1595.55 169.905 1621.47 70.6768 1701.09 51.7889Z" fill="url(#paint0_linear_306:574)"/>
</g>
<g filter="url(#filter1_d_306:574)">
<path fill-rule="evenodd" clip-rule="evenodd" d="M-308.8 1320.3C-307.559 1207.23 -175.574 1152.11 -120.582 1055.13C-79.0298 981.856 -85.7399 886.002 -28.166 825.407C38.3378 755.413 125.401 682.894 220.674 695.968C315.532 708.984 355.832 827.151 431.45 888.476C508.888 951.277 628.753 965.677 667.835 1058.61C707.795 1153.63 684.454 1272.21 628.203 1356.33C576.192 1434.11 472.359 1443.28 387.049 1478.51C320.247 1506.09 254.915 1522.81 184.632 1539.5C79.2196 1564.53 -26.2729 1645.01 -126.569 1600.46C-229.162 1554.88 -310.055 1434.58 -308.8 1320.3Z" fill="url(#paint1_linear_306:574)"/>
</g>
<g filter="url(#filter2_d_306:574)">
<path fill-rule="evenodd" clip-rule="evenodd" d="M140.297 344.052C191.436 344.928 240.978 356.43 284.944 382.565C332.487 410.827 375.172 447.644 398.74 497.681C424.502 552.379 439.857 615.418 421.794 673.118C403.646 731.09 354.478 773.458 302.544 804.968C253.8 834.542 197.282 842.127 140.297 843.91C81.4926 845.75 15.4442 853.324 -29.4987 815.358C-73.8225 777.914 -64.9325 709.335 -83.9134 654.504C-103.434 598.116 -157.948 547.423 -142.173 489.874C-126.366 432.209 -61.1262 404.976 -7.99556 377.547C38.1638 353.718 88.3571 343.162 140.297 344.052Z" fill="url(#paint2_linear_306:574)"/>
</g>
<g filter="url(#filter3_d_306:574)">
<path fill-rule="evenodd" clip-rule="evenodd" d="M31.0038 2434C82.1433 2434.88 131.685 2446.38 175.651 2472.51C223.194 2500.78 265.879 2537.59 289.447 2587.63C315.209 2642.33 330.564 2705.37 312.501 2763.07C294.353 2821.04 245.185 2863.41 193.251 2894.92C144.507 2924.49 87.9894 2932.08 31.0038 2933.86C-27.8003 2935.7 -93.8488 2943.27 -138.792 2905.31C-183.115 2867.86 -174.225 2799.28 -193.206 2744.45C-212.727 2688.06 -267.241 2637.37 -251.466 2579.82C-235.659 2522.16 -170.419 2494.92 -117.289 2467.5C-71.1292 2443.67 -20.9359 2433.11 31.0038 2434Z" fill="url(#paint3_linear_306:574)"/>
</g>
<g filter="url(#filter4_d_306:574)">
<path fill-rule="evenodd" clip-rule="evenodd" d="M1852.83 306.027C1896.66 307.158 1929.33 343.647 1963.19 371.507C1994.86 397.571 2032.87 421.929 2042.22 461.871C2051.35 500.851 2022.94 536.594 2010.77 574.731C1998.51 613.141 2002.77 661.227 1970.76 685.739C1938.65 710.325 1892.89 701.2 1852.83 695.671C1817.55 690.802 1784.5 678.013 1756.39 656.15C1729.02 634.867 1713.24 604.59 1696.6 574.173C1675.7 535.952 1638.72 499.336 1647.26 456.616C1655.87 413.517 1702.8 391.679 1738.25 365.707C1773.86 339.621 1808.7 304.889 1852.83 306.027Z" fill="url(#paint4_linear_306:574)"/>
</g>
<g filter="url(#filter5_d_306:574)">
<path fill-rule="evenodd" clip-rule="evenodd" d="M2126.58 1876C2183.57 1940.21 2199.12 2038.64 2178.29 2121.87C2158.29 2201.8 2082.87 2250.5 2019.67 2303.26C1963.75 2349.94 1906.03 2395.11 1834.49 2408.89C1762.35 2422.78 1683.09 2419.94 1621.36 2379.97C1562.57 2341.91 1554.26 2262.82 1517.13 2203.41C1476.15 2137.83 1380.83 2090.64 1392.83 2014.29C1404.87 1937.62 1515.66 1927.64 1569.27 1871.61C1622.86 1815.59 1628.01 1704.26 1704.02 1689.04C1779.75 1673.88 1827.11 1774.56 1897.79 1805.84C1972.59 1838.93 2072.26 1814.8 2126.58 1876Z" fill="url(#paint5_linear_306:574)"/>
</g>
<g filter="url(#filter6_d_306:574)">
<path fill-rule="evenodd" clip-rule="evenodd" d="M1562.83 1960.03C1606.66 1961.16 1639.33 1997.65 1673.19 2025.51C1704.86 2051.57 1742.87 2075.93 1752.22 2115.87C1761.35 2154.85 1732.94 2190.59 1720.77 2228.73C1708.51 2267.14 1712.77 2315.23 1680.76 2339.74C1648.65 2364.32 1602.89 2355.2 1562.83 2349.67C1527.55 2344.8 1494.5 2332.01 1466.39 2310.15C1439.02 2288.87 1423.24 2258.59 1406.6 2228.17C1385.7 2189.95 1348.72 2153.34 1357.26 2110.62C1365.87 2067.52 1412.8 2045.68 1448.25 2019.71C1483.86 1993.62 1518.7 1958.89 1562.83 1960.03Z" fill="url(#paint6_linear_306:574)"/>
</g>
</g>
<defs>
<filter id="filter0_d_306:574" x="1309" y="38" width="743" height="767" filterUnits="userSpaceOnUse" color-interpolation-filters="sRGB">
<feFlood flood-opacity="0" result="BackgroundImageFix"/>
<feColorMatrix in="SourceAlpha" type="matrix" values="0 0 0 0 0 0 0 0 0 0 0 0 0 0 0 0 0 0 127 0" result="hardAlpha"/>
<feOffset dx="-8" dy="8"/>
<feGaussianBlur stdDeviation="8"/>
<feColorMatrix type="matrix" values="0 0 0 0 0.454167 0 0 0 0 0.450382 0 0 0 0 0.450382 0 0 0 0.1 0"/>
<feBlend mode="normal" in2="BackgroundImageFix" result="effect1_dropShadow_306:574"/>
<feBlend mode="normal" in="SourceGraphic" in2="effect1_dropShadow_306:574" result="shape"/>
</filter>
<filter id="filter1_d_306:574" x="-316.814" y="686.428" width="1028.65" height="951.226" filterUnits="userSpaceOnUse" color-interpolation-filters="sRGB">
<feFlood flood-opacity="0" result="BackgroundImageFix"/>
<feColorMatrix in="SourceAlpha" type="matrix" values="0 0 0 0 0 0 0 0 0 0 0 0 0 0 0 0 0 0 127 0" result="hardAlpha"/>
<feOffset dx="8" dy="8"/>
<feGaussianBlur stdDeviation="8"/>
<feColorMatrix type="matrix" values="0 0 0 0 0.454167 0 0 0 0 0.450382 0 0 0 0 0.450382 0 0 0 0.1 0"/>
<feBlend mode="normal" in2="BackgroundImageFix" result="effect1_dropShadow_306:574"/>
<feBlend mode="normal" in="SourceGraphic" in2="effect1_dropShadow_306:574" result="shape"/>
</filter>
<filter id="filter2_d_306:574" x="-153" y="336" width="606.649" height="533.762" filterUnits="userSpaceOnUse" color-interpolation-filters="sRGB">
<feFlood flood-opacity="0" result="BackgroundImageFix"/>
<feColorMatrix in="SourceAlpha" type="matrix" values="0 0 0 0 0 0 0 0 0 0 0 0 0 0 0 0 0 0 127 0" result="hardAlpha"/>
<feOffset dx="8" dy="8"/>
<feGaussianBlur stdDeviation="8"/>
<feColorMatrix type="matrix" values="0 0 0 0 0.454167 0 0 0 0 0.450382 0 0 0 0 0.450382 0 0 0 0.1 0"/>
<feBlend mode="normal" in2="BackgroundImageFix" result="effect1_dropShadow_306:574"/>
<feBlend mode="normal" in="SourceGraphic" in2="effect1_dropShadow_306:574" result="shape"/>
</filter>
<filter id="filter3_d_306:574" x="-262.293" y="2425.95" width="606.649" height="533.762" filterUnits="userSpaceOnUse" color-interpolation-filters="sRGB">
<feFlood flood-opacity="0" result="BackgroundImageFix"/>
<feColorMatrix in="SourceAlpha" type="matrix" values="0 0 0 0 0 0 0 0 0 0 0 0 0 0 0 0 0 0 127 0" result="hardAlpha"/>
<feOffset dx="8" dy="8"/>
<feGaussianBlur stdDeviation="8"/>
<feColorMatrix type="matrix" values="0 0 0 0 0.454167 0 0 0 0 0.450382 0 0 0 0 0.450382 0 0 0 0.1 0"/>
<feBlend mode="normal" in2="BackgroundImageFix" result="effect1_dropShadow_306:574"/>
<feBlend mode="normal" in="SourceGraphic" in2="effect1_dropShadow_306:574" result="shape"/>
</filter>
<filter id="filter4_d_306:574" x="1622" y="298" width="430" height="428" filterUnits="userSpaceOnUse" color-interpolation-filters="sRGB">
<feFlood flood-opacity="0" result="BackgroundImageFix"/>
<feColorMatrix in="SourceAlpha" type="matrix" values="0 0 0 0 0 0 0 0 0 0 0 0 0 0 0 0 0 0 127 0" result="hardAlpha"/>
<feOffset dx="-8" dy="8"/>
<feGaussianBlur stdDeviation="8"/>
<feColorMatrix type="matrix" values="0 0 0 0 0.454167 0 0 0 0 0.450382 0 0 0 0 0.450382 0 0 0 0.1 0"/>
<feBlend mode="normal" in2="BackgroundImageFix" result="effect1_dropShadow_306:574"/>
<feBlend mode="normal" in="SourceGraphic" in2="effect1_dropShadow_306:574" result="shape"/>
</filter>
<filter id="filter5_d_306:574" x="1367.79" y="1679.5" width="827.33" height="760.954" filterUnits="userSpaceOnUse" color-interpolation-filters="sRGB">
<feFlood flood-opacity="0" result="BackgroundImageFix"/>
<feColorMatrix in="SourceAlpha" type="matrix" values="0 0 0 0 0 0 0 0 0 0 0 0 0 0 0 0 0 0 127 0" result="hardAlpha"/>
<feOffset dx="-8" dy="8"/>
<feGaussianBlur stdDeviation="8"/>
<feColorMatrix type="matrix" values="0 0 0 0 0.454167 0 0 0 0 0.450382 0 0 0 0 0.450382 0 0 0 0.1 0"/>
<feBlend mode="normal" in2="BackgroundImageFix" result="effect1_dropShadow_306:574"/>
<feBlend mode="normal" in="SourceGraphic" in2="effect1_dropShadow_306:574" result="shape"/>
</filter>
<filter id="filter6_d_306:574" x="1332" y="1952" width="430" height="428" filterUnits="userSpaceOnUse" color-interpolation-filters="sRGB">
<feFlood flood-opacity="0" result="BackgroundImageFix"/>
<feColorMatrix in="SourceAlpha" type="matrix" values="0 0 0 0 0 0 0 0 0 0 0 0 0 0 0 0 0 0 127 0" result="hardAlpha"/>
<feOffset dx="-8" dy="8"/>
<feGaussianBlur stdDeviation="8"/>
<feColorMatrix type="matrix" values="0 0 0 0 0.454167 0 0 0 0 0.450382 0 0 0 0 0.450382 0 0 0 0.1 0"/>
<feBlend mode="normal" in2="BackgroundImageFix" result="effect1_dropShadow_306:574"/>
<feBlend mode="normal" in="SourceGraphic" in2="effect1_dropShadow_306:574" result="shape"/>
</filter>
<linearGradient id="paint0_linear_306:574" x1="1333" y1="413.5" x2="2044" y2="413.5" gradientUnits="userSpaceOnUse">
<stop stop-color="#89F7FE"/>
<stop offset="1" stop-color="#66A6FF"/>
</linearGradient>
<linearGradient id="paint1_linear_306:574" x1="267.742" y1="1532.65" x2="51.9657" y2="727.358" gradientUnits="userSpaceOnUse">
<stop stop-color="#00CDAC"/>
<stop offset="1" stop-color="#8DDAD5"/>
</linearGradient>
<linearGradient id="paint2_linear_306:574" x1="-145" y1="594.881" x2="429.649" y2="594.881" gradientUnits="userSpaceOnUse">
<stop stop-color="#4FACFE"/>
<stop offset="1" stop-color="#00F2FE"/>
</linearGradient>
<linearGradient id="paint3_linear_306:574" x1="-286.999" y1="1861.88" x2="287.65" y2="1861.88" gradientUnits="userSpaceOnUse">
<stop stop-color="#4FACFE"/>
<stop offset="1" stop-color="#00F2FE"/>
</linearGradient>
<linearGradient id="paint4_linear_306:574" x1="1646" y1="504" x2="2044" y2="504" gradientUnits="userSpaceOnUse">
<stop stop-color="#84FAB0"/>
<stop offset="1" stop-color="#8FD3F4"/>
</linearGradient>
<linearGradient id="paint5_linear_306:574" x1="1633.74" y1="1722.92" x2="1970.22" y2="2349.26" gradientUnits="userSpaceOnUse">
<stop stop-color="#89F7FE"/>
<stop offset="1" stop-color="#66A6FF"/>
</linearGradient>
<linearGradient id="paint6_linear_306:574" x1="1435.04" y1="2364.67" x2="1833.04" y2="2364.67" gradientUnits="userSpaceOnUse">
<stop stop-color="#84FAB0"/>
<stop offset="1" stop-color="#8FD3F4"/>
</linearGradient>
<clipPath id="clip0_306:574">
<rect width="1920" height="3240" fill="white"/>
</clipPath>
</defs>
</svg>
