<svg width="20" height="20" viewBox="0 0 20 20" fill="none" xmlns="http://www.w3.org/2000/svg">
<g clip-path="url(#clip0_305:850)">
<path d="M24.9678 -0.32251H10.5161L-5.4375 10.7188V19.8959H24.9678L26 19.2904V17.3733L25.3281 16.7344V14.9219L26 14.424V11.4747L25.3958 10.8959V9.04168L26 8.5253V5.57605L25.3958 5.04174V3.41674L26 2.6268V0.709741C26 0.139616 25.5378 -0.32251 24.9678 -0.32251Z" fill="#E5646E"/>
<path d="M10.0205 2.62683H25.9997V5.57614H10.0205V2.62683Z" fill="#F2F2F6"/>
<path d="M10 8.52527L10.5161 11.4746H26V8.52527H10Z" fill="#F2F2F6"/>
<path d="M-4.96775 16.1937V10.9376L-6 11.4747V14.4241L-5.5625 14.797V16.7345L-6 17.3734V19.2904C-6 19.8606 -5.53781 20.3227 -4.96775 20.3227H24.9678C25.5378 20.3227 26 19.8605 26 19.2904H-1.87094C-3.58125 19.2904 -4.96775 17.904 -4.96775 16.1937Z" fill="#DB4655"/>
<path d="M10.5161 -0.32251H-4.96775L-5.625 0.709741L-4.96775 11.4747H10.5161V-0.32251Z" fill="#5055A0"/>
<path d="M8.45613 1.97866C8.17081 1.97866 7.9375 1.74754 7.9375 1.46254C7.9375 1.17754 8.16581 0.946411 8.45113 0.946411H8.45619C8.7415 0.946411 8.97231 1.17754 8.97231 1.46254C8.97231 1.74754 8.74144 1.97866 8.45613 1.97866Z" fill="white"/>
<path d="M8.45613 6.10781C8.17081 6.10781 7.9375 5.87669 7.9375 5.59169C7.9375 5.30669 8.16581 5.07556 8.45113 5.07556H8.45619C8.7415 5.07556 8.97231 5.30669 8.97231 5.59169C8.97231 5.87669 8.74144 6.10781 8.45613 6.10781Z" fill="white"/>
<path d="M8.45613 10.2366C8.17081 10.2366 7.9375 10.0055 7.9375 9.72047C7.9375 9.43547 8.16581 9.20435 8.45113 9.20435H8.45619C8.7415 9.20435 8.97231 9.43547 8.97231 9.72047C8.97231 10.0055 8.74144 10.2366 8.45613 10.2366Z" fill="white"/>
<path d="M8.45613 4.04324C8.17081 4.04324 7.9375 3.81211 7.9375 3.52711C7.9375 3.24211 8.16581 3.01099 8.45113 3.01099H8.45619C8.7415 3.01099 8.97231 3.24211 8.97231 3.52711C8.97231 3.81211 8.74144 4.04324 8.45613 4.04324Z" fill="#F2F2F6"/>
<path d="M8.45613 8.17214C8.17081 8.17214 7.9375 7.94102 7.9375 7.65602C7.9375 7.37102 8.16581 7.13989 8.45113 7.13989H8.45619C8.7415 7.13989 8.97231 7.37102 8.97231 7.65602C8.97231 7.94102 8.74144 8.17214 8.45613 8.17214Z" fill="#F2F2F6"/>
<path d="M2.26277 1.97866C1.97745 1.97866 1.74414 1.74754 1.74414 1.46254C1.74414 1.17754 1.97245 0.946411 2.25777 0.946411H2.26283C2.54814 0.946411 2.77895 1.17754 2.77895 1.46254C2.77895 1.74754 2.54802 1.97866 2.26277 1.97866Z" fill="white"/>
<path d="M2.26277 6.10781C1.97745 6.10781 1.74414 5.87669 1.74414 5.59169C1.74414 5.30669 1.97245 5.07556 2.25777 5.07556H2.26283C2.54814 5.07556 2.77895 5.30669 2.77895 5.59169C2.77895 5.87669 2.54802 6.10781 2.26277 6.10781Z" fill="white"/>
<path d="M2.26277 10.2366C1.97745 10.2366 1.74414 10.0055 1.74414 9.72047C1.74414 9.43547 1.97245 9.20435 2.25777 9.20435H2.26283C2.54814 9.20435 2.77895 9.43547 2.77895 9.72047C2.77895 10.0055 2.54802 10.2366 2.26277 10.2366Z" fill="white"/>
<path d="M2.26277 4.04324C1.97745 4.04324 1.74414 3.81211 1.74414 3.52711C1.74414 3.24211 1.97245 3.01099 2.25777 3.01099H2.26283C2.54814 3.01099 2.77895 3.24211 2.77895 3.52711C2.77889 3.81211 2.54802 4.04324 2.26277 4.04324Z" fill="#F2F2F6"/>
<path d="M2.26277 8.17214C1.97745 8.17214 1.74414 7.94102 1.74414 7.65602C1.74414 7.37102 1.97245 7.13989 2.25777 7.13989H2.26283C2.54814 7.13989 2.77895 7.37102 2.77895 7.65602C2.77895 7.94102 2.54802 8.17214 2.26277 8.17214Z" fill="#F2F2F6"/>
<path d="M0.714914 3.01089C0.429601 3.01089 0.196289 2.77976 0.196289 2.49476C0.196289 2.20976 0.424602 1.97864 0.709914 1.97864H0.714976C1.00029 1.97864 1.2311 2.20976 1.2311 2.49476C1.2311 2.77982 1.00023 3.01089 0.714914 3.01089Z" fill="#F2F2F6"/>
<path d="M0.714914 7.13979C0.429601 7.13979 0.196289 6.90867 0.196289 6.62367C0.196289 6.33867 0.424602 6.10754 0.709914 6.10754H0.714976C1.00029 6.10754 1.2311 6.33867 1.2311 6.62367C1.2311 6.90867 1.00023 7.13979 0.714914 7.13979Z" fill="#F2F2F6"/>
<path d="M0.714914 5.07558C0.429601 5.07558 0.196289 4.84446 0.196289 4.55946C0.196289 4.27446 0.424602 4.04333 0.709914 4.04333H0.714976C1.00029 4.04333 1.2311 4.27446 1.2311 4.55946C1.2311 4.84446 1.00023 5.07558 0.714914 5.07558Z" fill="white"/>
<path d="M0.714914 9.20437C0.429601 9.20437 0.196289 8.97324 0.196289 8.68824C0.196289 8.40324 0.424602 8.17212 0.709914 8.17212H0.714976C1.00029 8.17212 1.2311 8.40324 1.2311 8.68824C1.2311 8.97324 1.00023 9.20437 0.714914 9.20437Z" fill="white"/>
<path d="M5.35456 1.97866C5.06925 1.97866 4.83594 1.74754 4.83594 1.46254C4.83594 1.17754 5.06425 0.946411 5.34956 0.946411H5.35462C5.63994 0.946411 5.87075 1.17754 5.87075 1.46254C5.87075 1.74754 5.63988 1.97866 5.35456 1.97866Z" fill="#F2F2F6"/>
<path d="M5.35456 6.10781C5.06925 6.10781 4.83594 5.87669 4.83594 5.59169C4.83594 5.30669 5.06425 5.07556 5.34956 5.07556H5.35462C5.63994 5.07556 5.87075 5.30669 5.87075 5.59169C5.87075 5.87669 5.63988 6.10781 5.35456 6.10781Z" fill="#F2F2F6"/>
<path d="M5.35456 10.2366C5.06925 10.2366 4.83594 10.0055 4.83594 9.72047C4.83594 9.43547 5.06425 9.20435 5.34956 9.20435H5.35462C5.63994 9.20435 5.87075 9.43547 5.87075 9.72047C5.87075 10.0055 5.63988 10.2366 5.35456 10.2366Z" fill="#F2F2F6"/>
<path d="M5.35456 4.04324C5.06925 4.04324 4.83594 3.81211 4.83594 3.52711C4.83594 3.24211 5.06425 3.01099 5.34956 3.01099H5.35462C5.63994 3.01099 5.87075 3.24211 5.87075 3.52711C5.87069 3.81211 5.63988 4.04324 5.35456 4.04324Z" fill="white"/>
<path d="M5.35456 8.17214C5.06925 8.17214 4.83594 7.94102 4.83594 7.65602C4.83594 7.37102 5.06425 7.13989 5.34956 7.13989H5.35462C5.63994 7.13989 5.87075 7.37102 5.87075 7.65602C5.87075 7.94102 5.63988 8.17214 5.35456 8.17214Z" fill="white"/>
<path d="M3.80671 3.01089C3.5214 3.01089 3.28809 2.77976 3.28809 2.49476C3.28809 2.20976 3.5164 1.97864 3.80171 1.97864H3.80677C4.09209 1.97864 4.3229 2.20976 4.3229 2.49476C4.32284 2.77982 4.09202 3.01089 3.80671 3.01089Z" fill="white"/>
<path d="M3.80671 7.13979C3.5214 7.13979 3.28809 6.90867 3.28809 6.62367C3.28809 6.33867 3.5164 6.10754 3.80171 6.10754H3.80677C4.09209 6.10754 4.3229 6.33867 4.3229 6.62367C4.3229 6.90867 4.09202 7.13979 3.80671 7.13979Z" fill="white"/>
<path d="M3.80671 5.07558C3.5214 5.07558 3.28809 4.84446 3.28809 4.55946C3.28809 4.27446 3.5164 4.04333 3.80171 4.04333H3.80677C4.09209 4.04333 4.3229 4.27446 4.3229 4.55946C4.3229 4.84446 4.09202 5.07558 3.80671 5.07558Z" fill="#F2F2F6"/>
<path d="M3.80671 9.20437C3.5214 9.20437 3.28809 8.97324 3.28809 8.68824C3.28809 8.40324 3.5164 8.17212 3.80171 8.17212H3.80677C4.09209 8.17212 4.3229 8.40324 4.3229 8.68824C4.3229 8.97324 4.09202 9.20437 3.80671 9.20437Z" fill="#F2F2F6"/>
<path d="M6.90827 3.01089C6.62296 3.01089 6.38965 2.77976 6.38965 2.49476C6.38965 2.20976 6.61796 1.97864 6.90327 1.97864H6.90834C7.19365 1.97864 7.42446 2.20976 7.42446 2.49476C7.4244 2.77982 7.19359 3.01089 6.90827 3.01089Z" fill="#F2F2F6"/>
<path d="M6.90827 7.13979C6.62296 7.13979 6.38965 6.90867 6.38965 6.62367C6.38965 6.33867 6.61796 6.10754 6.90327 6.10754H6.90834C7.19365 6.10754 7.42446 6.33867 7.42446 6.62367C7.42446 6.90867 7.19359 7.13979 6.90827 7.13979Z" fill="#F2F2F6"/>
<path d="M6.90827 5.07558C6.62296 5.07558 6.38965 4.84446 6.38965 4.55946C6.38965 4.27446 6.61796 4.04333 6.90327 4.04333H6.90834C7.19365 4.04333 7.42446 4.27446 7.42446 4.55946C7.42446 4.84446 7.19359 5.07558 6.90827 5.07558Z" fill="white"/>
<path d="M6.90827 9.20437C6.62296 9.20437 6.38965 8.97324 6.38965 8.68824C6.38965 8.40324 6.61796 8.17212 6.90327 8.17212H6.90834C7.19365 8.17212 7.42446 8.40324 7.42446 8.68824C7.42446 8.97324 7.19359 9.20437 6.90827 9.20437Z" fill="white"/>
<path d="M-5.8125 16.5209L-4.73375 17.3734H26V14.4241H-4.96775L-5.8125 16.5209Z" fill="#F2F2F6"/>
</g>
<defs>
<clipPath id="clip0_305:850">
<rect width="20" height="20" rx="10" fill="white"/>
</clipPath>
</defs>
</svg>
